 <svg  version="1.0" xmlns="http://www.w3.org/2000/svg"  width="300.000000pt" height="300.000000pt" viewBox="0 0 300.000000 300.000000"  preserveAspectRatio="xMidYMid meet">  <g transform="translate(0.000000,300.000000) scale(0.100000,-0.100000)" fill="#d0aeca" stroke="none"> <path d="M1279 2416 c-161 -37 -370 -179 -502 -341 -69 -84 -133 -251 -170 -443 -20 -106 -22 -146 -21 -427 0 -302 6 -392 39 -565 7 -41 16 -130 18 -197 5 -120 5 -121 -22 -155 -54 -67 -90 -135 -110 -208 -25 -88 -24 -80 -8 -80 9 0 19 22 27 57 14 64 25 89 79 178 l36 60 7 -50 c3 -27 7 -84 7 -125 1 -51 6 -83 17 -98 l15 -22 803 0 c920 0 835 -10 837 96 1 32 4 86 8 119 l6 60 42 -81 c23 -44 47 -103 54 -130 12 -51 24 -72 35 -61 17 17 -37 152 -102 253 l-32 52 8 143 c30 497 31 557 21 878 -12 353 -25 447 -82 589 -54 137 -161 281 -272 366 -167 128 -362 181 -448 123 l-34 -23 -33 19 c-42 25 -146 31 -223 13z m227 -51 c38 -26 44 -25 79 3 27 22 36 24 101 19 228 -17 483 -241 577 -507 33 -93 56 -194 55 -240 -1 -19 2 -49 5 -66 9 -52 20 -429 13 -451 -6 -19 -15 -21 -67 -22 -38 0 -61 4 -64 12 -2 7 -6 45 -10 86 -3 41 -10 94 -14 118 -5 25 -6 53 -4 64 3 12 -3 29 -14 42 -11 12 -32 47 -46 77 -109 231 -235 401 -339 456 -24 13 -63 19 -140 22 -74 3 -108 8 -108 16 0 6 6 36 14 66 15 57 20 104 16 155 -2 25 -4 23 -10 -15 -5 -25 -11 -74 -15 -110 -4 -36 -13 -75 -21 -87 -12 -19 -18 -20 -46 -12 -90 25 -277 -2 -326 -48 -7 -7 -20 -13 -28 -13 -8 0 -14 -4 -14 -10 0 -5 -7 -10 -15 -10 -18 0 -86 -89 -114 -150 -12 -25 -43 -108 -71 -185 -37 -104 -57 -147 -79 -167 -45 -40 -52 -61 -58 -174 -3 -57 -11 -111 -17 -119 -6 -8 -34 -15 -66 -17 l-55 -3 0 205 c0 221 4 261 40 417 48 205 111 328 227 443 60 61 118 100 118 80 0 -5 -4 -10 -9 -10 -12 0 -131 -120 -131 -131 0 -14 3 -12 46 27 84 78 201 172 222 178 12 4 22 12 22 17 0 5 3 8 8 7 4 -1 22 6 41 16 86 46 243 57 297 21z m58 -410 c208 -18 232 -27 313 -120 99 -115 246 -379 278 -500 8 -33 18 -104 22 -157 5 -86 4 -98 -10 -98 -9 0 -19 5 -22 11 -4 6 -27 8 -58 5 -29 -3 -81 -8 -117 -11 -35 -3 -66 -8 -69 -11 -2 -2 95 -4 216 -4 204 0 221 -1 237 -19 13 -14 15 -24 8 -38 -5 -10 -13 -93 -17 -186 -4 -92 -8 -180 -10 -195 -2 -15 -6 -110 -9 -212 -8 -265 -16 -362 -32 -388 l-14 -22 -778 0 c-427 0 -782 4 -788 8 -27 18 -33 59 -38 258 -6 240 -13 324 -32 377 -7 20 -16 90 -19 155 -3 64 -8 138 -11 165 -4 41 -1 51 20 72 21 21 34 25 88 25 l63 0 -3 103 c-5 128 8 181 48 202 33 17 68 85 109 214 39 122 87 216 138 266 70 71 213 131 283 119 14 -2 106 -11 204 -19z"/> <path d="M1470 1933 c-133 -20 -258 -69 -345 -134 -61 -47 -93 -87 -134 -167 -35 -70 -29 -86 8 -17 34 65 120 155 185 194 54 32 233 100 267 101 8 0 24 7 35 15 10 8 17 14 14 13 -3 0 -16 -2 -30 -5z"/> <path d="M1580 1920 c0 -5 19 -19 43 -31 71 -37 150 -94 198 -145 25 -27 69 -74 98 -104 54 -58 59 -43 8 25 -55 73 -131 146 -197 189 -72 47 -150 81 -150 66z"/> <path d="M1062 1571 c-30 -10 -61 -26 -70 -35 -15 -15 -15 -16 5 -16 11 0 40 7 63 15 55 19 147 19 205 0 47 -17 65 -14 65 10 0 20 -91 45 -159 45 -31 -1 -80 -9 -109 -19z"/> <path d="M1718 1574 c-28 -8 -48 -21 -48 -29 0 -24 18 -27 65 -10 59 20 140 19 215 -2 59 -16 78 -14 66 6 -12 19 -137 51 -195 50 -31 0 -77 -7 -103 -15z"/> <path d="M1049 1417 c16 -20 -32 -41 -62 -27 -21 10 -21 10 1 -6 21 -16 22 -18 6 -35 -10 -11 -27 -19 -38 -20 -13 -1 -7 -4 14 -10 31 -7 37 -5 54 17 16 22 65 54 81 54 3 0 -1 -10 -9 -22 -19 -26 -21 -70 -5 -101 19 -38 51 -57 97 -57 56 0 102 41 102 90 0 27 3 30 14 21 8 -6 19 -25 26 -41 7 -17 16 -30 21 -30 19 0 -23 77 -61 111 -46 43 -113 63 -175 53 -27 -4 -45 -2 -49 5 -4 6 -12 11 -18 11 -7 0 -7 -4 1 -13z m119 -51 c5 -24 -10 -38 -31 -30 -17 6 -23 35 -10 48 12 12 38 1 41 -18z m96 -10 c14 -12 17 -23 12 -48 -11 -58 -31 -78 -81 -78 -36 0 -48 5 -69 31 -25 29 -37 77 -16 64 6 -3 10 -13 10 -21 0 -24 38 -54 69 -54 20 0 36 9 50 27 24 30 21 55 -13 92 -20 22 -20 23 -1 13 11 -7 28 -18 39 -26z m-48 -50 c-18 -28 -31 -32 -41 -15 -10 15 36 62 48 50 7 -7 4 -19 -7 -35z"/> <path d="M1936 1423 c-4 -5 -40 -8 -80 -9 -57 0 -80 -5 -109 -23 -61 -37 -117 -117 -101 -143 4 -5 14 8 24 30 24 53 40 62 40 22 0 -22 9 -41 29 -61 65 -65 181 -21 181 68 0 21 -7 49 -16 61 -8 12 -12 22 -9 22 16 0 65 -32 82 -54 17 -21 24 -23 54 -16 20 5 26 8 13 9 -11 1 -28 9 -38 20 -16 17 -15 19 6 35 l23 17 -23 -12 c-29 -13 -40 -5 -22 16 11 13 10 14 -4 9 -9 -3 -16 -10 -16 -15 0 -4 -7 -6 -15 -3 -12 5 -13 10 -4 20 12 14 -2 20 -15 7z m-50 -58 c18 -28 15 -95 -6 -120 -16 -20 -89 -19 -117 0 -12 9 -27 32 -33 53 -9 34 -8 39 15 60 32 27 45 28 45 3 0 -26 -17 -36 -35 -21 -24 20 -19 -32 6 -64 27 -34 81 -36 103 -4 33 47 12 101 -44 111 -18 3 -15 5 12 6 30 1 41 -4 54 -24z m-36 -45 c0 -24 -37 -47 -53 -31 -7 7 -5 16 8 31 23 25 45 26 45 0z"/> <path d="M846 1108 c-9 -12 -16 -26 -16 -30 0 -5 62 -7 138 -7 129 2 133 2 67 11 -144 18 -170 24 -167 36 3 18 -5 14 -22 -10z"/> <path d="M1397 1102 c-22 -24 -21 -32 3 -32 11 0 20 4 20 9 0 5 3 16 6 25 8 22 -9 20 -29 -2z"/> <path d="M1575 1103 c2 -10 4 -21 4 -25 1 -5 13 -8 28 -8 l26 0 -23 25 c-28 29 -40 32 -35 8z"/> <path d="M1488 630 c-26 -29 -26 -30 -6 -41 14 -7 28 -7 50 0 21 8 36 7 50 0 18 -10 18 -8 -3 20 -22 30 -23 30 -36 11 -16 -23 -43 -27 -43 -6 0 8 7 22 16 30 8 9 12 16 7 16 -5 0 -20 -14 -35 -30z"/> <path d="M1582 548 c-18 -18 -14 -43 10 -64 21 -19 21 -19 13 1 -5 11 -8 32 -8 48 0 31 1 31 -15 15z"/> </g> </svg> 