<?xml version="1.0" standalone="no"?>
<!DOCTYPE svg PUBLIC "-//W3C//DTD SVG 20010904//EN"
 "http://www.w3.org/TR/2001/REC-SVG-20010904/DTD/svg10.dtd">
<svg version="1.0" xmlns="http://www.w3.org/2000/svg"
 width="300.000000pt" height="300.000000pt" viewBox="0 0 300.000000 300.000000"
 preserveAspectRatio="xMidYMid meet">
<metadata>
Created by potrace 1.10, written by Peter Selinger 2001-2011
</metadata>
<g transform="translate(0.000000,300.000000) scale(0.100000,-0.100000)"
fill="#e5d1e5" stroke="none">
<path d="M2250 2859 c0 -28 2 -30 18 -18 9 7 19 15 21 16 6 4 -20 33 -30 33
-5 0 -9 -14 -9 -31z"/>
<path d="M634 2867 c-3 -8 3 -36 13 -63 17 -46 21 -49 53 -49 31 0 36 4 54 47
27 66 19 78 -54 78 -41 0 -62 -4 -66 -13z m97 -39 c-26 -42 -32 -43 -54 -12
-22 30 -15 44 13 26 11 -7 20 -8 20 -3 0 5 8 12 18 14 9 3 19 5 20 6 2 0 -5
-14 -17 -31z m-43 -40 c10 -10 17 -10 35 0 21 12 21 12 -2 -8 -29 -25 -33 -25
-49 0 -13 22 -3 27 16 8z"/>
<path d="M2120 2818 l0 -63 52 2 53 1 -45 -7 -45 -8 63 -1 62 -2 0 41 c0 24
-4 38 -10 34 -5 -3 -10 -15 -10 -26 0 -16 -7 -19 -55 -19 l-55 0 0 50 0 49 58
4 57 3 -62 2 -63 2 0 -62z"/>
<path d="M406 2829 c-32 -38 -33 -61 -1 -114 13 -23 22 -45 19 -48 -3 -3 -1
-15 6 -26 20 -38 80 -21 80 22 0 10 9 31 19 46 54 75 23 150 -61 151 -28 0
-42 -7 -62 -31z m117 -10 c21 -22 23 -75 2 -83 -11 -4 -15 2 -15 20 0 35 -42
54 -69 30 -15 -14 -17 -24 -10 -54 10 -48 5 -51 -15 -8 -25 53 -18 92 19 110
34 17 62 12 88 -15z m-37 -37 c6 -4 10 -31 10 -59 -1 -50 -3 -53 -26 -53 -23
0 -25 4 -27 52 -2 58 13 80 43 60z m34 -66 c0 -3 -4 -8 -10 -11 -5 -3 -10 -1
-10 4 0 6 5 11 10 11 6 0 10 -2 10 -4z m-37 -63 c-7 -2 -21 -2 -30 0 -10 3 -4
5 12 5 17 0 24 -2 18 -5z"/>
<path d="M1220 2837 c-34 -17 -37 -41 -39 -265 -1 -189 4 -225 33 -244 6 -4
104 -8 219 -8 194 0 208 1 227 20 19 19 20 33 20 245 0 212 -1 226 -20 245
-19 19 -33 20 -217 20 -139 0 -205 -4 -223 -13z m350 -37 c0 -28 30 -26 31 3
l0 22 10 -23 c5 -13 18 -26 28 -29 18 -5 19 -16 18 -200 0 -129 -5 -199 -12
-210 -10 -13 -43 -16 -217 -17 -114 0 -209 2 -213 6 -10 10 -12 401 -2 438 l8
30 174 0 c168 0 175 -1 175 -20z m74 -1 c-3 -5 -10 -7 -15 -3 -5 3 -7 10 -3
15 3 5 10 7 15 3 5 -3 7 -10 3 -15z"/>
<path d="M1454 2789 c-3 -6 -18 -8 -33 -4 -28 6 -97 -25 -158 -71 -28 -21 -31
-28 -22 -47 14 -30 84 -70 110 -62 16 6 20 3 17 -11 -2 -11 -16 -21 -35 -25
-39 -8 -82 -34 -90 -55 -11 -28 18 -59 85 -91 84 -39 138 -41 207 -5 63 33 95
61 95 83 0 25 -57 69 -90 69 -15 0 -30 6 -33 14 -6 15 12 26 44 26 11 0 36 15
57 34 36 34 37 34 18 55 -11 12 -31 27 -45 35 -14 7 -47 25 -73 39 -29 16 -50
22 -54 16z m-34 -34 c0 -8 -25 -29 -56 -46 -30 -18 -52 -35 -47 -40 4 -4 31
-9 58 -11 l50 -3 0 -65 0 -65 -52 -5 c-28 -3 -55 -8 -58 -12 -4 -4 16 -18 44
-33 50 -25 71 -48 57 -63 -10 -9 -156 71 -156 86 0 20 62 52 103 52 37 0 37 0
37 40 l0 40 -40 0 c-51 0 -102 25 -98 48 3 16 122 91 146 92 6 0 12 -7 12 -15z
m120 -24 c36 -20 66 -44 68 -52 4 -20 -49 -49 -92 -49 -35 0 -36 -1 -36 -40 0
-38 1 -40 33 -40 36 0 97 -33 97 -52 0 -13 -128 -88 -149 -88 -29 0 -5 31 44
59 61 35 63 53 6 51 -64 -3 -62 -6 -59 68 l3 67 45 3 c67 5 69 17 9 48 -55 27
-71 42 -63 56 9 14 27 8 94 -31z m-61 -38 c2 -1 -8 -8 -22 -14 -21 -9 -30 -9
-42 1 -14 12 -14 15 2 30 17 16 20 16 38 1 11 -9 22 -17 24 -18z m-13 -198
c17 -9 22 -15 13 -15 -9 0 -22 -7 -29 -15 -10 -12 -15 -12 -37 2 l-25 16 24
13 c12 7 24 13 24 14 1 0 15 -7 30 -15z"/>
<path d="M2203 2843 c9 -2 23 -2 30 0 6 3 -1 5 -18 5 -16 0 -22 -2 -12 -5z"/>
<path d="M1138 2833 c7 -3 16 -2 19 1 4 3 -2 6 -13 5 -11 0 -14 -3 -6 -6z"/>
<path d="M1715 2830 c11 -5 29 -8 40 -8 16 0 15 2 -5 8 -34 11 -60 11 -35 0z"/>
<path d="M2158 2819 c-4 -23 -2 -25 24 -21 31 5 39 22 9 22 -11 0 -21 6 -24
13 -2 6 -6 1 -9 -14z"/>
<path d="M1085 2820 c-3 -6 1 -7 9 -4 18 7 21 14 7 14 -6 0 -13 -4 -16 -10z"/>
<path d="M1800 2810 c8 -5 22 -9 30 -9 10 0 8 3 -5 9 -27 12 -43 12 -25 0z"/>
<path d="M1000 2800 c-13 -9 -13 -10 0 -10 8 0 22 5 30 10 13 9 13 10 0 10 -8
0 -22 -5 -30 -10z"/>
<path d="M1858 2793 c7 -3 16 -2 19 1 4 3 -2 6 -13 5 -11 0 -14 -3 -6 -6z"/>
<path d="M2387 2765 c-42 -30 -21 -109 31 -117 18 -3 38 2 50 13 24 19 40 69
23 69 -6 0 -8 7 -5 15 4 9 0 15 -10 15 -9 0 -16 4 -16 10 0 12 -55 8 -73 -5z
m78 -29 c30 -45 -20 -91 -64 -59 -23 16 -28 52 -9 71 20 20 56 14 73 -12z"/>
<path d="M2420 2715 c-10 -13 -9 -15 9 -15 12 0 21 6 21 15 0 8 -4 15 -9 15
-5 0 -14 -7 -21 -15z"/>
<path d="M955 2753 c-70 -3 -93 -7 -102 -20 -16 -21 -18 -186 -3 -214 10 -17
22 -19 135 -19 149 0 145 -4 145 134 0 87 -2 96 -22 110 -12 9 -32 15 -43 14
-11 -1 -60 -4 -110 -5z m155 -34 c0 -5 -7 -9 -15 -9 -15 0 -20 12 -9 23 8 8
24 -1 24 -14z m-150 1 c0 -6 -8 -13 -17 -17 -10 -3 -28 -15 -40 -26 -25 -22
-35 -18 -40 14 -2 13 5 23 20 29 31 12 77 12 77 0z m113 -14 c18 -18 21 -26
11 -30 -8 -3 -19 7 -28 24 -18 36 -14 37 17 6z m-41 -12 c7 -8 25 -29 41 -45
30 -33 32 -41 17 -70 -9 -17 -22 -19 -103 -19 -90 0 -117 8 -117 35 0 15 59
81 70 78 4 -1 16 7 25 17 22 24 50 26 67 4z m71 -160 c-4 -10 -14 -14 -29 -11
-13 2 -22 1 -19 -3 2 -3 -31 -5 -73 -5 -106 3 -112 3 -112 18 0 9 27 11 110 9
78 -3 110 0 110 8 0 6 4 9 10 5 5 -3 6 -13 3 -21z"/>
<path d="M1776 2728 c-14 -19 -16 -62 -16 -270 0 -314 -17 -288 193 -288 136
0 156 2 170 18 15 16 17 50 17 270 0 239 -1 253 -20 272 -18 18 -33 20 -174
20 -149 0 -155 -1 -170 -22z m329 -22 c21 -21 21 -472 0 -500 -12 -16 -25 -18
-109 -14 -53 2 -96 0 -96 -5 0 -5 -6 -7 -12 -4 -7 2 -12 10 -10 16 1 6 -2 11
-8 11 -5 0 -10 -4 -10 -8 0 -6 -24 -7 -62 -3 -3 1 -7 69 -7 153 -1 83 -5 156
-8 161 -3 5 0 8 8 5 8 -2 15 -16 17 -31 4 -31 45 -67 78 -67 12 0 26 -4 29
-10 9 -15 61 -12 75 4 6 8 18 12 26 9 20 -8 64 35 64 63 0 12 7 27 15 34 8 7
15 23 15 35 0 12 -7 28 -15 35 -8 7 -15 21 -15 32 0 27 -47 71 -70 65 -11 -3
-21 1 -24 9 -7 19 -70 18 -86 0 -6 -8 -17 -13 -25 -10 -18 7 -65 -46 -65 -73
0 -12 -4 -25 -10 -28 -6 -4 -10 20 -10 64 0 46 4 71 13 74 6 2 74 3 150 1 104
-3 141 -7 152 -18z m-127 -43 c4 -28 11 -29 28 -5 12 16 14 16 36 -5 17 -18
20 -25 10 -35 -18 -18 -14 -38 8 -38 16 0 20 -7 20 -31 0 -26 -3 -29 -20 -24
-23 7 -28 -13 -8 -33 10 -10 7 -17 -10 -34 -17 -17 -24 -20 -34 -10 -18 18
-28 15 -28 -8 0 -16 -7 -20 -30 -20 -23 0 -30 4 -30 20 0 22 -20 26 -38 8 -10
-10 -17 -7 -35 10 -20 21 -21 24 -5 33 23 13 12 38 -13 32 -16 -4 -19 0 -19
26 0 24 4 31 19 31 24 0 35 26 14 35 -15 5 -14 8 5 27 17 18 24 19 36 9 18
-15 40 -5 32 14 -7 19 4 26 34 23 17 -2 26 -10 28 -25z"/>
<path d="M1839 2343 c-36 -31 -37 -65 -4 -99 22 -22 30 -24 72 -18 27 4 55 6
63 5 62 -6 85 -1 103 20 10 12 15 29 12 37 -3 8 0 21 6 28 9 11 8 19 -6 34
-19 21 -69 27 -80 10 -4 -6 -16 -8 -28 -4 -51 17 -108 12 -138 -13z m132 -3
c6 0 7 -5 4 -10 -4 -6 -15 -8 -25 -5 -29 9 -34 -14 -5 -25 37 -14 30 -44 -13
-48 -39 -4 -43 15 -4 20 l27 4 -27 12 c-16 6 -28 18 -28 26 0 18 30 37 48 31
8 -3 18 -5 23 -5z m-81 -10 c0 -5 -7 -10 -16 -10 -11 0 -14 -8 -12 -27 2 -16
8 -27 16 -25 6 1 12 -2 12 -8 0 -18 -39 -11 -50 9 -14 28 4 71 30 71 11 0 20
-4 20 -10z m180 -5 c0 -8 -5 -15 -11 -15 -8 0 -8 -5 1 -15 10 -12 10 -18 0
-30 -14 -17 -80 -21 -80 -5 0 5 8 9 18 8 32 -2 52 2 52 12 0 6 -10 10 -22 10
l-23 0 25 21 c24 20 24 21 3 16 -13 -3 -26 -1 -29 4 -3 5 11 9 30 9 25 0 36
-4 36 -15z"/>
<path d="M1910 2590 c-11 -11 -20 -27 -20 -35 0 -21 36 -55 58 -55 24 0 52 31
52 57 0 23 -30 53 -53 53 -9 0 -26 -9 -37 -20z m65 -35 c0 -22 -31 -33 -47
-17 -17 17 -1 44 24 40 15 -2 23 -10 23 -23z"/>
<path d="M785 2700 c-3 -6 1 -7 9 -4 18 7 21 14 7 14 -6 0 -13 -4 -16 -10z"/>
<path d="M723 2664 c-24 -14 -43 -27 -43 -30 0 -6 67 33 85 48 17 15 1 8 -42
-18z"/>
<path d="M2170 2656 c0 -2 12 -12 28 -21 l27 -18 -19 21 c-17 20 -36 29 -36
18z"/>
<path d="M282 2574 c-22 -15 -22 -19 -22 -243 0 -177 3 -231 14 -246 13 -17
30 -19 240 -19 196 0 228 2 242 16 15 14 16 45 15 245 -2 192 -5 231 -18 245
-14 16 -39 18 -232 18 -180 0 -220 -3 -239 -16z m368 -28 c0 -23 28 -40 44
-27 10 8 16 9 21 1 3 -5 14 -10 23 -10 13 0 17 -7 16 -27 -1 -16 -3 -107 -3
-204 -1 -157 -3 -178 -18 -183 -32 -13 -423 -8 -439 5 -12 9 -14 51 -14 222 1
134 5 216 12 224 16 20 358 19 358 -1z m40 -1 c0 -8 -4 -15 -9 -15 -13 0 -22
16 -14 24 11 11 23 6 23 -9z m50 0 c0 -8 -4 -15 -10 -15 -5 0 -10 7 -10 15 0
8 5 15 10 15 6 0 10 -7 10 -15z"/>
<path d="M490 2525 c-14 -8 -46 -24 -72 -36 -39 -17 -50 -28 -64 -65 -9 -24
-20 -44 -24 -44 -4 0 -11 -16 -14 -35 -5 -27 0 -47 26 -97 30 -57 39 -66 98
-95 36 -17 73 -32 83 -32 21 -1 129 52 144 71 7 7 25 38 40 68 l29 55 -32 75
c-31 71 -35 77 -92 106 -80 43 -93 46 -122 29z m194 -143 l28 -69 -30 -60
c-29 -56 -35 -61 -97 -87 l-66 -29 -63 29 c-60 27 -66 33 -95 92 l-31 62 30
68 c30 65 32 68 98 98 l67 31 66 -33 c64 -31 66 -34 93 -102z"/>
<path d="M502 2470 c-11 -19 -10 -20 24 -20 36 0 37 0 19 20 -10 11 -21 20
-24 20 -3 0 -12 -9 -19 -20z"/>
<path d="M460 2468 c-16 -7 -20 -12 -12 -15 8 -3 21 2 30 11 19 18 17 19 -18
4z"/>
<path d="M572 2465 c9 -10 21 -16 28 -13 7 2 -1 10 -16 17 -27 12 -28 11 -12
-4z"/>
<path d="M410 2418 c0 -16 -3 -19 -8 -10 -6 8 -13 1 -25 -23 -9 -19 -15 -35
-14 -35 2 0 23 20 47 45 39 40 42 45 22 45 -16 0 -22 -6 -22 -22z"/>
<path d="M455 2420 c-18 -20 -17 -20 65 -20 82 0 83 0 65 20 -13 15 -31 20
-65 20 -34 0 -52 -5 -65 -20z"/>
<path d="M605 2420 c14 -16 20 -17 27 -8 13 22 9 28 -19 28 -26 0 -26 0 -8
-20z"/>
<path d="M640 2404 c0 -12 9 -29 21 -40 21 -19 21 -19 8 11 -18 42 -29 53 -29
29z"/>
<path d="M439 2383 c-13 -3 -15 -14 -11 -56 2 -29 6 -54 9 -57 4 -5 56 22 87
45 20 15 20 15 0 29 -38 28 -69 42 -85 39z m49 -46 c9 -8 8 -13 -5 -23 -27
-20 -33 -17 -33 17 0 30 5 31 38 6z"/>
<path d="M515 2375 c10 -5 29 -19 43 -31 l25 -21 -37 -22 c-20 -12 -36 -25
-36 -27 0 -2 25 -4 55 -4 l55 0 0 58 0 57 -61 0 c-47 1 -58 -2 -44 -10z"/>
<path d="M383 2348 c-23 -26 -24 -47 -1 -97 13 -29 16 -31 20 -13 4 13 -1 27
-13 38 -22 20 -17 33 6 14 13 -11 15 -7 15 34 0 25 -1 46 -3 46 -2 0 -13 -10
-24 -22z"/>
<path d="M630 2327 l0 -47 25 16 c14 9 25 19 25 23 0 4 -11 18 -25 31 l-25 23
0 -46z"/>
<path d="M663 2283 c-14 -9 -23 -26 -24 -42 0 -21 -2 -22 -8 -8 -6 17 -8 17
-25 -2 -19 -21 -19 -21 7 -21 20 0 31 10 50 45 14 25 25 45 24 44 -1 0 -12 -7
-24 -16z"/>
<path d="M420 2241 c-14 -28 -13 -31 12 -31 17 0 19 3 10 12 -22 22 -12 32 11
10 34 -32 105 -31 137 3 l23 25 -91 0 c-80 0 -93 -2 -102 -19z"/>
<path d="M442 2195 c15 -12 49 -25 44 -16 -12 18 6 12 20 -6 12 -17 14 -17 36
5 l23 22 -63 -1 c-34 -1 -61 -3 -60 -4z"/>
<path d="M569 2183 c-13 -15 -12 -15 11 -3 34 17 36 20 18 20 -9 0 -22 -7 -29
-17z"/>
<path d="M2232 2570 c-21 -20 -22 -27 -22 -240 0 -207 1 -221 20 -240 19 -19
33 -20 220 -20 198 0 201 0 225 24 l23 23 -5 219 c-5 203 -6 220 -25 237 -18
15 -44 17 -217 17 -185 0 -199 -1 -219 -20z m338 -24 c0 -21 29 -41 41 -29 7
7 18 7 35 -1 l24 -11 0 -197 c0 -147 -3 -199 -12 -205 -19 -12 -390 -15 -408
-4 -12 9 -16 47 -18 221 -2 153 0 215 9 226 17 20 329 21 329 0z m40 -1 c0 -8
-4 -15 -10 -15 -5 0 -10 7 -10 15 0 8 5 15 10 15 6 0 10 -7 10 -15z m50 0 c0
-8 -4 -15 -10 -15 -5 0 -10 7 -10 15 0 8 5 15 10 15 6 0 10 -7 10 -15z"/>
<path d="M2417 2510 c-14 -11 -40 -20 -61 -20 -41 0 -69 -31 -60 -66 4 -16 -2
-31 -20 -49 -33 -33 -33 -59 0 -92 18 -18 24 -33 21 -51 -7 -35 31 -72 67 -65
16 3 34 0 44 -9 28 -25 45 -26 74 -6 18 12 35 17 52 12 33 -8 76 33 76 74 0
16 9 37 20 47 11 10 20 30 20 45 0 15 -9 35 -20 45 -13 12 -20 31 -20 55 0 33
-4 40 -35 54 -19 9 -41 16 -47 14 -7 -1 -27 6 -45 15 -39 21 -35 21 -66 -3z
m65 -22 c14 -14 34 -22 62 -22 l41 -1 -1 -39 c-1 -31 4 -44 22 -59 13 -10 24
-27 24 -37 0 -10 -11 -27 -24 -37 -18 -15 -23 -28 -22 -59 l1 -39 -45 0 c-31
0 -49 -5 -58 -17 -17 -23 -49 -23 -64 1 -9 14 -20 18 -48 14 -47 -7 -65 13
-50 52 6 15 9 29 8 29 -42 25 -58 39 -58 51 0 16 30 50 49 56 8 3 8 14 2 36
-12 40 6 57 51 51 25 -4 36 0 51 18 23 30 31 30 59 2z"/>
<path d="M2432 2478 c-7 -7 -12 -15 -12 -19 0 -11 37 -17 51 -9 10 7 10 11 0
24 -16 19 -23 20 -39 4z"/>
<path d="M2335 2450 c-3 -5 -3 -20 1 -34 5 -22 9 -23 29 -14 32 14 39 45 11
52 -29 8 -34 7 -41 -4z"/>
<path d="M2516 2451 c-19 -7 -19 -8 3 -30 27 -27 46 -23 46 10 0 25 -18 33
-49 20z"/>
<path d="M2405 2430 c-3 -5 -2 -10 4 -10 5 0 13 5 16 10 3 6 2 10 -4 10 -5 0
-13 -4 -16 -10z"/>
<path d="M2475 2430 c3 -5 11 -10 16 -10 6 0 7 5 4 10 -3 6 -11 10 -16 10 -6
0 -7 -4 -4 -10z"/>
<path d="M2413 2410 c-33 -13 -28 -34 11 -48 26 -10 40 -10 60 -1 33 15 33 37
0 49 -30 12 -42 12 -71 0z m57 -26 c0 -2 -9 -4 -21 -4 -11 0 -18 4 -14 10 5 8
35 3 35 -6z"/>
<path d="M2307 2352 c-10 -10 -17 -22 -17 -27 0 -8 31 -34 41 -35 12 0 19 31
13 56 -7 29 -15 30 -37 6z"/>
<path d="M2350 2359 c0 -5 5 -7 10 -4 6 3 10 8 10 11 0 2 -4 4 -10 4 -5 0 -10
-5 -10 -11z"/>
<path d="M2562 2346 c-8 -18 -7 -28 2 -41 11 -15 14 -15 36 3 24 20 22 35 -9
52 -14 7 -20 4 -29 -14z"/>
<path d="M2368 2325 c-8 -19 -12 -35 -7 -35 5 0 9 4 9 8 0 4 15 13 33 20 31
12 31 13 13 27 -27 21 -30 20 -48 -20z"/>
<path d="M2492 2347 l-23 -13 26 -12 c35 -16 35 -16 35 13 0 28 -5 30 -38 12z"/>
<path d="M2421 2308 c-17 -11 -31 -24 -31 -29 0 -17 48 -32 83 -25 48 9 53 30
13 54 -33 20 -34 20 -65 0z m53 -29 c-7 -12 -44 -12 -44 0 0 5 6 11 13 14 17
6 38 -3 31 -14z"/>
<path d="M2335 2242 c-8 -32 4 -43 36 -34 22 6 25 11 19 28 -5 12 -17 24 -28
26 -16 4 -22 0 -27 -20z"/>
<path d="M2532 2254 c-28 -19 -28 -40 0 -47 28 -8 38 -1 38 28 0 32 -12 37
-38 19z"/>
<path d="M2407 2235 c3 -8 9 -12 14 -9 12 7 11 11 -5 17 -10 4 -13 1 -9 -8z"/>
<path d="M2475 2230 c4 -6 11 -8 16 -5 14 9 11 15 -7 15 -8 0 -12 -5 -9 -10z"/>
<path d="M2432 2212 c-10 -7 -8 -13 7 -26 19 -17 20 -17 30 2 15 29 -7 43 -37
24z"/>
<path d="M113 2428 c-2 -5 14 -8 36 -8 23 0 41 4 41 8 0 10 -70 10 -77 0z"/>
<path d="M2756 2417 c-20 -16 -25 -26 -18 -31 7 -4 15 -1 18 7 3 9 19 21 35
28 27 10 34 9 60 -10 38 -28 50 -21 13 8 -35 27 -72 27 -108 -2z"/>
<path d="M2782 2398 c-19 -19 -14 -33 6 -15 23 21 27 21 47 1 9 -9 19 -13 23
-9 9 9 -27 35 -48 35 -9 0 -21 -5 -28 -12z"/>
<path d="M80 2390 c0 -6 30 -10 70 -10 40 0 70 4 70 10 0 6 -30 10 -70 10 -40
0 -70 -4 -70 -10z"/>
<path d="M2800 2370 c0 -5 5 -10 10 -10 6 0 10 5 10 10 0 6 -4 10 -10 10 -5 0
-10 -4 -10 -10z"/>
<path d="M113 2353 c20 -2 54 -2 75 0 20 2 3 4 -38 4 -41 0 -58 -2 -37 -4z"/>
<path d="M860 2340 c-18 -18 -20 -33 -20 -131 0 -61 5 -119 10 -130 10 -17 22
-19 130 -19 150 0 150 0 150 146 0 87 -3 105 -21 128 -20 25 -24 26 -125 26
-91 0 -107 -3 -124 -20z m238 -68 l3 -54 -34 26 c-19 14 -39 26 -46 26 -6 0
-30 12 -52 26 -38 24 -43 25 -58 10 -24 -25 -29 -161 -6 -185 13 -15 14 -21 3
-27 -27 -17 -38 -12 -39 19 0 18 -2 66 -4 107 -5 117 -12 111 118 108 l112 -3
3 -53z m-153 -62 c0 -55 -4 -85 -12 -87 -8 -3 -12 20 -15 77 -3 89 -1 103 16
97 7 -2 11 -33 11 -87z m75 35 c27 -13 51 -29 55 -34 5 -10 -83 -61 -105 -61
-25 0 -7 30 25 41 l36 13 -36 18 c-19 10 -35 25 -35 33 0 20 2 19 60 -10z m77
-104 c-1 -28 -6 -53 -10 -57 -13 -13 -61 -13 -69 -1 -6 9 -8 9 -8 0 0 -7 -16
-10 -46 -7 -54 4 -68 12 -36 21 12 3 22 9 22 14 0 5 7 9 16 9 15 0 101 44 119
61 15 14 16 12 12 -40z"/>
<path d="M2800 2340 c0 -5 5 -10 10 -10 6 0 10 5 10 10 0 6 -4 10 -10 10 -5 0
-10 -4 -10 -10z"/>
<path d="M113 2318 c-2 -5 14 -8 36 -8 23 0 41 4 41 8 0 10 -70 10 -77 0z"/>
<path d="M2730 2228 c0 -11 10 -43 23 -69 l22 -48 93 -1 c104 0 93 -10 96 92
l1 48 -117 0 c-114 0 -118 -1 -118 -22z m220 -48 l0 -60 -83 0 -82 0 -23 43
c-39 75 -37 77 83 77 l105 0 0 -60z"/>
<path d="M2813 2213 c9 -2 23 -2 30 0 6 3 -1 5 -18 5 -16 0 -22 -2 -12 -5z"/>
<path d="M2883 2213 c9 -2 23 -2 30 0 6 3 -1 5 -18 5 -16 0 -22 -2 -12 -5z"/>
<path d="M2843 2183 c9 -2 23 -2 30 0 6 3 -1 5 -18 5 -16 0 -22 -2 -12 -5z"/>
<path d="M2810 2150 c0 -5 9 -10 20 -10 11 0 20 5 20 10 0 6 -9 10 -20 10 -11
0 -20 -4 -20 -10z"/>
<path d="M2870 2150 c0 -5 9 -10 20 -10 11 0 20 5 20 10 0 6 -9 10 -20 10 -11
0 -20 -4 -20 -10z"/>
<path d="M60 2216 c-18 -22 -5 -48 22 -44 17 2 23 10 23 28 0 29 -26 38 -45
16z m38 -18 c-6 -18 -28 -21 -28 -4 0 9 7 16 16 16 9 0 14 -5 12 -12z"/>
<path d="M1367 2199 c-132 -31 -238 -151 -282 -319 -14 -53 -16 -89 -10 -200
4 -74 7 -147 7 -161 1 -26 -31 -99 -94 -212 -46 -84 -49 -155 -10 -221 28 -48
28 -51 14 -88 -14 -36 -17 -38 -62 -38 -84 0 -85 -3 -71 -186 7 -88 10 -172 6
-189 -3 -16 -8 -40 -10 -52 -2 -12 -6 -28 -10 -35 -4 -7 5 -1 20 13 l27 27
-17 193 c-17 186 -17 193 1 206 12 9 56 14 138 15 67 1 96 3 66 5 -30 3 -57 9
-61 14 -16 26 -1 100 31 148 37 59 106 97 228 126 87 21 102 37 102 113 0 48
2 53 18 47 62 -25 104 -25 165 0 10 4 17 4 16 -1 -1 -5 -1 -32 0 -61 1 -57 16
-80 59 -89 81 -16 193 -59 225 -85 46 -38 75 -101 73 -159 l-1 -45 -59 -3 -59
-3 7 53 c4 29 16 73 27 98 13 31 14 39 4 25 -16 -21 -44 -104 -47 -139 0 -12
-4 2 -8 29 l-7 50 -1 -57 -2 -58 -310 0 -310 0 -1 53 c0 28 -5 61 -10 72 -6
14 -7 -1 -4 -45 l5 -65 -20 69 c-11 38 -25 76 -30 85 -7 14 0 20 41 36 27 11
49 23 49 27 0 4 14 8 31 8 16 0 28 4 24 9 -11 18 -137 -33 -169 -68 -16 -18
-16 -19 0 -17 19 1 40 -50 50 -125 l7 -49 452 0 c250 0 460 -3 469 -6 11 -4
16 -19 16 -43 0 -70 -56 -650 -64 -658 -6 -7 -1009 -13 -1052 -7 l-42 6 -13
136 c-8 76 -18 137 -22 137 -4 0 -17 -16 -29 -35 l-21 -35 26 30 c30 35 36 22
7 -15 -25 -32 -25 -42 4 -69 18 -17 25 -38 31 -84 4 -43 14 -72 31 -95 l25
-32 514 0 514 0 22 32 c18 25 26 57 36 143 7 60 12 132 12 159 0 34 4 47 12
44 7 -2 15 -10 17 -18 3 -7 0 -10 -7 -6 -20 13 -12 -10 11 -30 18 -16 20 -17
15 -2 -3 9 -9 34 -13 55 -4 21 -11 43 -16 50 -8 10 0 127 18 270 7 57 -18 83
-79 83 -42 0 -44 1 -55 39 -11 35 -10 44 15 91 18 36 28 73 31 114 4 55 -1 73
-36 157 -53 125 -62 160 -72 298 l-9 116 4 -125 c3 -120 7 -141 49 -255 6 -16
4 -15 -13 5 -42 50 -52 116 -50 307 2 172 1 180 -25 248 -53 138 -149 225
-250 225 -23 0 -59 7 -81 15 -45 16 -101 17 -158 4z m158 -28 c32 -19 38 -36
39 -116 1 -42 -5 -59 -37 -107 -35 -51 -114 -118 -141 -118 -6 0 12 20 40 44
58 51 120 137 130 181 4 19 -5 8 -25 -31 -29 -57 -111 -147 -171 -186 -25 -16
-25 -16 25 -14 86 4 183 89 189 165 3 46 16 50 16 5 0 -21 4 -53 9 -70 11 -38
60 -118 68 -110 4 3 -2 15 -12 26 -10 11 -16 22 -14 24 2 2 21 -16 42 -40 21
-24 34 -44 29 -44 -5 0 -14 6 -21 13 -14 17 -108 22 -127 6 -23 -19 -6 -28 31
-18 23 7 48 6 72 -1 69 -19 69 -17 54 -122 -19 -136 -47 -181 -141 -229 -110
-57 -261 -5 -311 107 -16 35 -22 41 -44 37 -36 -8 -85 44 -85 91 0 47 34 74
62 49 10 -8 20 -32 24 -52 8 -48 15 -73 19 -69 2 2 -2 40 -9 85 l-13 82 48 11
c26 6 66 10 88 9 52 -4 57 12 8 28 -33 11 -45 10 -95 -9 -85 -31 -140 -74
-148 -115 -8 -41 10 -87 43 -113 l24 -19 -16 -63 c-15 -62 -37 -110 -115 -258
-21 -41 -42 -92 -45 -112 -8 -47 -22 -49 -29 -5 -10 67 -13 138 -5 125 6 -9 8
-5 7 12 -1 14 11 46 26 73 27 46 44 63 32 31 -3 -9 -2 -12 5 -9 5 4 7 16 3 27
-4 15 -3 18 6 13 8 -5 11 -4 7 2 -4 6 2 31 13 55 20 47 28 109 34 285 4 100 7
120 35 178 40 87 126 176 207 216 56 28 71 31 128 27 36 -2 60 0 53 4 -6 4
-22 8 -34 8 -13 0 -23 4 -23 9 0 9 -13 6 -107 -27 -61 -21 -152 -98 -200 -171
-24 -34 -43 -60 -43 -57 0 16 33 83 55 112 14 18 21 35 16 38 -12 8 -63 -81
-86 -149 -11 -31 -20 -99 -25 -180 l-7 -130 -1 102 c-1 56 3 126 9 155 28 132
113 253 212 303 65 32 175 35 222 6z m113 -8 c-10 -2 -28 -2 -40 0 -13 2 -5 4
17 4 22 1 32 -1 23 -4z m77 -29 c55 -37 112 -108 83 -102 -14 3 -12 -33 2 -42
4 -3 17 -32 30 -65 18 -49 24 -92 31 -230 4 -93 6 -171 4 -174 -3 -2 -5 11 -5
29 0 18 -3 31 -6 27 -4 -3 -3 -27 1 -53 4 -26 10 -43 13 -37 4 6 7 -8 8 -30 0
-25 17 -83 41 -142 48 -119 59 -170 42 -210 l-12 -30 -26 58 c-15 32 -30 54
-34 50 -5 -4 -5 0 -2 9 4 9 -5 38 -18 64 -34 69 -74 190 -82 250 -6 49 -5 53
28 86 41 42 43 79 4 130 -14 18 -51 83 -82 143 -64 124 -109 199 -139 234
l-21 23 39 -16 c89 -37 157 -117 202 -238 12 -35 23 -58 23 -51 1 20 -41 126
-64 163 -38 58 -87 102 -150 132 l-60 29 58 -4 c47 -3 63 -9 87 -32 16 -15 27
-33 23 -38 -3 -6 -1 -7 4 -4 6 4 16 0 23 -8 14 -17 30 -20 30 -4 0 5 -5 7 -12
3 -7 -5 -8 -3 -3 6 6 9 4 11 -5 5 -9 -6 -11 -4 -5 5 6 9 4 11 -5 5 -9 -6 -11
-4 -5 5 6 9 4 11 -5 5 -9 -6 -11 -4 -5 5 5 9 4 11 -4 6 -7 -4 -10 -2 -9 5 2 7
-15 23 -37 35 -22 13 -35 24 -29 24 6 0 28 -12 49 -26z m-57 -157 c27 -53 53
-93 57 -89 5 4 5 2 2 -4 -9 -15 12 -76 24 -68 5 3 6 -1 3 -9 -3 -8 0 -18 7
-23 8 -4 10 -3 5 4 -4 7 -5 12 -2 12 3 0 12 -13 21 -29 13 -27 13 -29 -3 -26
-9 2 -20 4 -24 4 -5 1 -7 7 -5 14 1 6 -5 11 -13 9 -8 -2 -12 0 -8 3 4 4 -8 26
-26 49 -19 22 -44 57 -56 76 -12 19 -19 26 -15 15 15 -44 16 -49 1 -25 -8 14
-12 36 -10 50 4 17 3 21 -4 12 -7 -10 -9 -6 -9 15 1 15 -3 51 -7 78 -11 67 2
53 62 -68z m207 -84 c8 -31 15 -69 14 -83 0 -14 -7 5 -14 42 -8 37 -23 88 -34
114 -26 58 -26 71 -1 22 11 -20 27 -63 35 -95z m-47 -227 c3 -29 -2 -42 -27
-66 -33 -34 -72 -40 -70 -12 1 9 4 31 8 47 l7 30 7 -27 c7 -28 21 -36 32 -19
3 6 -2 14 -11 19 -9 5 -14 14 -10 21 11 18 26 13 36 -11 8 -21 9 -20 9 9 1 40
-14 50 -40 27 -17 -15 -19 -15 -19 -1 0 8 7 23 16 32 25 24 58 -2 62 -49z
m-568 -170 c0 -49 -19 -143 -41 -202 -17 -44 -26 -55 -55 -64 -19 -7 -48 -23
-64 -37 -17 -14 -30 -21 -31 -16 0 4 -7 -5 -14 -22 -8 -16 -14 -23 -14 -15 0
8 9 31 20 50 16 28 19 30 14 10 -3 -14 22 28 54 92 33 65 65 144 71 175 18 88
17 85 40 73 14 -7 20 -21 20 -44z m524 -13 c7 -68 65 -245 77 -237 5 3 6 -2 3
-11 -4 -10 -2 -15 6 -13 7 2 15 -4 17 -12 4 -13 3 -13 -6 0 -8 11 -11 11 -11
2 0 -9 -8 -8 -32 5 -18 9 -38 16 -45 15 -11 -2 -35 51 -51 118 l-9 35 -7 -43
c-5 -24 -5 -46 -2 -49 3 -4 6 7 7 23 0 24 3 21 15 -20 9 -26 13 -51 9 -54 -3
-3 -8 4 -12 17 -4 14 -8 18 -13 11 -10 -15 -60 -2 -60 17 0 8 -5 11 -10 8 -6
-4 -8 -11 -5 -16 3 -5 -1 -6 -9 -3 -19 7 -27 28 -33 82 -5 42 -3 46 46 91 l51
47 1 -30 c1 -17 1 -47 0 -66 -1 -27 0 -32 9 -20 6 9 8 41 4 82 -6 65 -6 68 17
77 13 5 27 7 30 5 3 -2 9 -29 13 -61z m-453 -64 c0 -11 2 -11 6 -1 11 28 33
-10 33 -58 0 -48 -18 -78 -40 -65 -5 3 -10 0 -10 -8 0 -8 -19 -18 -47 -24 -27
-6 -49 -11 -50 -10 -1 1 7 32 17 69 10 37 21 91 25 122 l7 54 29 -33 c16 -18
29 -39 30 -46z m665 -153 c8 -21 14 -55 13 -75 -1 -32 -2 -31 -13 19 -18 78
-43 133 -57 124 -8 -4 -9 -3 -5 5 4 6 -1 26 -12 44 -11 17 -23 43 -27 57 -9
35 84 -126 101 -174z m-891 -6 c-9 -16 -18 -30 -21 -30 -2 0 2 14 11 30 9 17
18 30 21 30 2 0 -2 -13 -11 -30z m-223 -722 c-7 -7 -12 -8 -12 -2 0 14 12 26
19 19 2 -3 -1 -11 -7 -17z m21 -116 c4 -36 3 -41 -9 -31 -15 12 -18 37 -8 64
9 21 10 18 17 -33z m1102 -212 c-8 -14 -1032 -14 -1040 0 -4 7 172 10 520 10
348 0 524 -3 520 -10z"/>
<path d="M1304 2155 c-28 -14 -63 -38 -79 -55 -33 -34 -17 -42 17 -7 32 32
105 67 158 77 l45 8 -46 1 c-30 1 -62 -7 -95 -24z"/>
<path d="M1480 2099 c-30 -16 -79 -53 -107 -82 -60 -58 -73 -53 -15 6 24 26
29 36 15 28 -29 -15 -116 -133 -153 -207 -31 -63 -41 -99 -15 -54 9 15 15 19
15 10 0 -8 15 10 32 40 42 73 130 183 169 211 17 12 54 35 83 50 28 16 47 29
41 29 -5 0 -35 -14 -65 -31z m-205 -203 c-25 -37 -45 -72 -45 -78 0 -6 -3 -9
-6 -6 -7 8 31 83 63 126 44 58 35 28 -12 -42z"/>
<path d="M1296 2013 c-6 -14 -5 -15 5 -6 7 7 10 15 7 18 -3 3 -9 -2 -12 -12z"/>
<path d="M1546 1883 c-6 -14 -5 -15 5 -6 7 7 10 15 7 18 -3 3 -9 -2 -12 -12z"/>
<path d="M1525 1850 c-4 -6 -10 -8 -15 -5 -5 3 -11 1 -14 -4 -8 -13 22 -7 36
7 7 7 9 12 6 12 -4 0 -10 -5 -13 -10z"/>
<path d="M1425 1800 c-3 -6 1 -7 9 -4 18 7 21 14 7 14 -6 0 -13 -4 -16 -10z"/>
<path d="M1297 1734 c-15 -8 -32 -12 -37 -9 -16 10 -11 -8 9 -32 21 -26 33
-30 25 -10 -3 8 2 20 11 27 14 12 16 11 10 -11 -9 -35 25 -65 54 -49 22 11 29
50 9 50 -6 0 -8 3 -5 6 4 4 13 1 22 -6 9 -7 15 -8 15 -2 0 15 -50 52 -69 52
-9 -1 -28 -8 -44 -16z m53 -28 c0 -3 -4 -8 -10 -11 -5 -3 -10 -1 -10 4 0 6 5
11 10 11 6 0 10 -2 10 -4z"/>
<path d="M1576 1729 c-14 -11 -26 -28 -26 -37 0 -15 2 -15 10 -2 8 12 10 11
10 -7 0 -34 33 -47 61 -24 21 17 22 21 10 47 l-13 29 22 -20 c12 -11 18 -25
15 -34 -3 -8 4 -4 17 9 18 20 20 26 8 29 -8 2 -24 10 -35 17 -27 19 -48 17
-79 -7z m24 -23 c0 -3 -4 -8 -10 -11 -5 -3 -10 -1 -10 4 0 6 5 11 10 11 6 0
10 -2 10 -4z"/>
<path d="M1161 1663 c0 -33 1 -35 9 -15 5 12 14 22 19 22 16 0 24 -22 11 -30
-9 -6 -9 -12 1 -29 8 -11 18 -21 23 -21 4 0 3 6 -3 14 -6 7 -9 21 -5 30 8 20
-21 66 -41 66 -11 0 -15 -11 -14 -37z"/>
<path d="M1273 1639 c-6 -6 -8 -19 -6 -30 7 -26 50 -36 70 -17 13 14 12 18 -8
37 -25 23 -40 26 -56 10z m46 -23 c9 -11 7 -15 -9 -19 -13 -3 -24 1 -30 14 -9
16 -7 19 8 19 11 0 25 -6 31 -14z"/>
<path d="M1631 1630 c-19 -17 -21 -23 -11 -35 25 -31 76 -7 68 32 -5 25 -29
26 -57 3z m49 -14 c0 -13 -20 -26 -41 -26 -14 0 -11 28 4 33 23 10 37 7 37 -7z"/>
<path d="M1462 1618 c-21 -21 -13 -38 18 -38 18 0 30 5 30 13 0 13 -19 37 -30
37 -3 0 -11 -5 -18 -12z m33 -18 c3 -6 -4 -10 -17 -10 -18 0 -20 2 -8 10 19
12 18 12 25 0z"/>
<path d="M1397 1539 c32 -32 108 -36 152 -9 44 28 35 35 -14 10 -43 -22 -97
-19 -126 6 -25 22 -35 16 -12 -7z"/>
<path d="M1013 1298 c-15 -20 -25 -38 -20 -38 3 0 12 11 21 25 17 26 16 35 -1
13z"/>
<path d="M1642 1400 c0 -14 2 -19 5 -12 2 6 2 18 0 25 -3 6 -5 1 -5 -13z"/>
<path d="M1325 1370 c3 -5 8 -10 11 -10 2 0 4 5 4 10 0 6 -5 10 -11 10 -5 0
-7 -4 -4 -10z"/>
<path d="M1321 1324 c0 -11 3 -14 6 -6 3 7 2 16 -1 19 -3 4 -6 -2 -5 -13z"/>
<path d="M2726 2161 c3 -13 7 -31 8 -39 3 -16 26 -30 26 -15 -1 4 -10 24 -21
43 -13 23 -18 27 -13 11z"/>
<path d="M6 2152 c-2 -4 8 -7 24 -6 27 2 29 0 19 -18 -14 -25 0 -40 36 -40 36
0 52 16 35 37 -7 8 -15 13 -18 10 -3 -2 1 -11 8 -20 11 -13 8 -15 -24 -15 -20
0 -36 4 -36 8 0 18 37 38 70 37 33 0 35 -2 35 -35 l0 -35 -80 -6 -80 -5 81 -2
c96 -2 113 8 98 61 l-10 32 -76 3 c-42 2 -79 -1 -82 -6z"/>
<path d="M2046 2097 c-24 -27 -29 -66 -7 -53 15 10 40 -4 35 -19 -8 -20 17
-30 28 -11 5 9 19 16 32 16 13 0 29 6 35 14 10 11 5 19 -21 38 -67 48 -73 49
-102 15z m51 0 c4 -7 21 -18 36 -25 36 -15 27 -32 -16 -28 -61 5 -83 26 -55
54 15 15 25 15 35 -1z"/>
<path d="M175 2040 c-14 -27 -23 -50 -20 -50 2 0 16 23 30 50 14 28 23 50 20
50 -2 0 -16 -22 -30 -50z"/>
<path d="M2766 2035 c-22 -22 -21 -96 2 -139 l18 -34 40 14 c21 8 63 14 92 14
l53 0 -3 78 -3 77 -92 3 c-73 2 -94 0 -107 -13z m184 -65 l0 -70 -44 0 c-23 0
-57 -5 -75 -11 -28 -10 -33 -8 -51 12 -22 27 -27 108 -8 127 7 7 44 12 95 12
l83 0 0 -70z"/>
<path d="M2800 1988 l0 -33 55 0 55 0 0 33 0 32 -55 0 -55 0 0 -32z m100 12
c0 -5 -20 -10 -45 -10 -25 0 -45 5 -45 10 0 6 20 10 45 10 25 0 45 -4 45 -10z"/>
<path d="M2800 1930 c0 -5 25 -9 55 -9 30 1 55 5 55 10 0 5 -25 9 -55 9 -30 0
-55 -4 -55 -10z"/>
<path d="M128 1930 c-5 -34 2 -39 19 -11 10 15 9 22 -1 30 -11 9 -15 5 -18
-19z"/>
<path d="M2136 1938 c-24 -33 -23 -399 0 -422 13 -14 52 -16 273 -16 228 0
260 2 272 17 11 12 14 61 14 215 0 186 -1 201 -19 214 -16 11 -70 14 -272 14
-250 0 -253 0 -268 -22z m27 -16 c-2 -10 3 -24 11 -32 12 -9 13 -16 6 -25 -8
-9 -6 -18 7 -30 9 -10 18 -24 19 -31 1 -7 12 -25 23 -40 27 -35 27 -47 -3 -42
-16 3 -27 -2 -35 -15 -11 -17 -9 -23 19 -48 l32 -29 -23 -19 c-38 -31 0 -79
43 -52 10 6 24 9 30 5 6 -4 74 -8 150 -8 117 -1 142 2 154 15 13 15 13 19 -2
33 -9 9 -14 20 -10 23 11 11 -26 43 -51 43 -27 0 -32 30 -8 50 8 7 15 19 15
26 0 8 8 23 18 34 9 11 17 25 17 30 0 5 9 16 20 24 18 13 18 16 5 30 -12 12
-43 16 -142 17 -116 1 -146 7 -118 24 5 3 7 11 4 19 -4 10 27 13 142 14 114 1
145 -1 136 -10 -14 -14 -16 -32 -3 -24 5 3 12 -1 15 -10 3 -9 13 -14 20 -11
20 8 22 -18 16 -203 l-5 -155 -239 -5 c-155 -3 -247 -1 -260 5 -20 10 -21 20
-23 194 -1 107 2 192 8 202 12 24 19 24 12 1z m52 -2 c3 -6 -1 -13 -10 -16
-19 -8 -30 0 -20 15 8 14 22 14 30 1z m55 -3 c0 -8 -3 -17 -7 -20 -9 -9 -34
13 -27 24 8 14 34 11 34 -4z m53 -2 c1 -5 -6 -11 -15 -13 -11 -2 -18 3 -18 13
0 17 30 18 33 0z m339 0 c0 -5 -5 -11 -11 -13 -6 -2 -11 4 -11 13 0 9 5 15 11
13 6 -2 11 -8 11 -13z m-74 -64 c3 -8 -53 -11 -197 -11 -115 0 -201 4 -201 9
0 15 12 16 207 15 129 -1 188 -5 191 -13z m-276 -56 c-3 -14 -85 -10 -90 4 -3
9 10 11 44 9 27 -2 48 -7 46 -13z m236 4 c-2 -7 -40 -11 -103 -11 -63 0 -101
4 -103 11 -2 7 31 11 103 11 72 0 105 -4 103 -11z m-178 -54 c0 -12 -13 -15
-55 -15 -42 0 -55 3 -55 15 0 12 13 15 55 15 42 0 55 -3 55 -15z m150 0 c0
-13 -12 -15 -67 -13 -42 2 -68 8 -71 16 -3 9 15 12 67 12 57 0 71 -3 71 -15z
m-242 -53 c2 -8 -9 -12 -37 -12 -37 0 -50 8 -36 22 11 10 69 2 73 -10z m212
-2 c0 -6 -37 -10 -90 -10 -53 0 -90 4 -90 10 0 6 37 10 90 10 53 0 90 -4 90
-10z m70 -55 c0 -12 -23 -14 -152 -12 -110 1 -152 5 -156 15 -3 9 32 12 152
12 131 0 156 -2 156 -15z m-302 -52 c2 -8 -5 -13 -17 -13 -12 0 -21 6 -21 16
0 18 31 15 38 -3z m332 2 c0 -13 -21 -15 -147 -13 -106 2 -147 6 -151 16 -3 9
31 12 147 12 129 0 151 -2 151 -15z"/>
<path d="M2591 1914 c0 -11 3 -14 6 -6 3 7 2 16 -1 19 -3 4 -6 -2 -5 -13z"/>
<path d="M7 1933 c-3 -5 16 -7 41 -5 73 5 82 10 20 11 -31 0 -59 -2 -61 -6z"/>
<path d="M188 1885 l4 -54 -94 -4 -93 -3 98 -2 97 -2 0 60 c0 33 -3 60 -7 60
-5 0 -6 -25 -5 -55z"/>
<path d="M277 1922 c-10 -10 -17 -31 -17 -45 l0 -27 305 0 305 0 0 25 c0 14
-9 34 -20 45 -19 19 -33 20 -288 20 -248 0 -270 -1 -285 -18z m483 -22 c0 -11
5 -20 11 -20 5 0 7 4 4 10 -3 6 1 7 9 4 41 -16 4 -21 -126 -19 -194 3 -187 2
-183 23 2 9 4 18 4 18 1 1 64 2 141 3 134 1 140 1 140 -19z m-420 -4 c0 -8 -5
-18 -11 -22 -14 -8 -33 11 -25 25 10 16 36 13 36 -3z m56 3 c10 -17 -13 -36
-27 -22 -12 12 -4 33 11 33 5 0 12 -5 16 -11z m54 -2 c0 -8 -3 -17 -7 -20 -9
-9 -34 13 -27 24 8 14 34 11 34 -4z m380 -3 c0 -8 -4 -12 -10 -9 -5 3 -10 10
-10 16 0 5 5 9 10 9 6 0 10 -7 10 -16z"/>
<path d="M2745 1879 c6 -30 15 -37 15 -11 0 11 -4 23 -9 27 -6 3 -8 -4 -6 -16z"/>
<path d="M75 1870 c-3 -5 -1 -10 4 -10 6 0 11 5 11 10 0 6 -2 10 -4 10 -3 0
-8 -4 -11 -10z"/>
<path d="M2789 1839 l-24 -21 27 16 c35 21 55 20 61 -1 4 -14 5 -12 6 5 1 29
-38 30 -70 1z"/>
<path d="M262 1688 c-2 -131 1 -159 14 -172 23 -24 555 -24 578 0 13 13 16 41
14 172 l-2 157 -6 -158 c-4 -125 -8 -160 -20 -167 -24 -15 -532 -13 -553 3
-14 10 -17 36 -20 167 l-3 155 -2 -157z"/>
<path d="M403 1812 c-112 -4 -106 -22 7 -22 50 0 90 4 90 9 0 15 -9 16 -97 13z"/>
<path d="M2858 1787 c-3 -19 -2 -25 4 -19 6 6 8 18 6 28 -3 14 -5 12 -10 -9z"/>
<path d="M83 1785 c-3 -9 -3 -19 1 -22 3 -4 6 1 6 10 0 12 13 17 58 20 l57 3
-58 2 c-44 2 -59 -2 -64 -13z"/>
<path d="M365 1760 c-3 -6 0 -12 7 -15 26 -9 323 0 326 10 3 14 -324 19 -333
5z"/>
<path d="M54 1726 c-17 -8 -34 -21 -38 -31 -9 -24 -7 -32 4 -15 9 13 10 13 10
0 1 -12 3 -11 11 3 5 9 20 17 32 18 20 1 20 2 -3 8 l-25 7 24 7 c14 3 32 2 40
-3 13 -8 13 -9 2 -10 -11 0 -11 -3 3 -13 30 -22 8 -86 -31 -87 -6 0 -19 -3
-29 -7 -12 -4 -15 -3 -10 6 5 7 2 10 -6 9 -8 -2 -13 6 -12 20 0 12 -3 22 -8
22 -18 0 -6 -38 20 -61 21 -19 41 -25 92 -27 l66 -4 2 75 3 74 -43 6 c-24 2
-50 7 -58 11 -8 3 -29 -1 -46 -8z m95 -28 c11 -10 13 -10 7 0 -5 8 0 12 13 12
17 0 19 -6 15 -62 -2 -34 -6 -63 -9 -66 -2 -2 -30 -1 -62 3 l-58 7 35 12 c41
13 62 55 42 86 -14 22 -3 27 17 8z"/>
<path d="M147 1648 c-4 -15 -15 -34 -24 -44 -13 -13 -14 -16 -3 -12 18 5 43
54 37 71 -2 6 -7 0 -10 -15z"/>
<path d="M2860 1735 c0 -5 5 -17 10 -25 5 -8 10 -10 10 -5 0 6 -5 17 -10 25
-5 8 -10 11 -10 5z"/>
<path d="M347 1724 c-14 -15 7 -24 54 -24 37 0 49 4 49 15 0 11 -12 15 -48 15
-27 0 -52 -3 -55 -6z"/>
<path d="M480 1715 c0 -12 13 -15 60 -15 47 0 60 3 60 15 0 12 -13 15 -60 15
-47 0 -60 -3 -60 -15z"/>
<path d="M624 1721 c-14 -14 19 -21 97 -21 74 0 89 3 89 15 0 13 -14 15 -91
13 -50 -2 -92 -5 -95 -7z"/>
<path d="M2749 1693 c0 -2 -1 -19 -1 -40 -1 -36 -1 -36 38 -36 39 0 39 0 39
38 0 37 -1 38 -38 39 -20 1 -37 0 -38 -1z m43 -38 c0 -5 -5 -11 -11 -13 -6 -2
-11 4 -11 13 0 9 5 15 11 13 6 -2 11 -8 11 -13z"/>
<path d="M55 1670 c-10 -16 5 -51 18 -43 7 4 17 8 22 8 6 0 9 8 7 18 -2 9 3
17 9 17 7 0 9 3 6 7 -4 3 -19 -4 -33 -18 l-26 -24 6 23 c8 23 2 30 -9 12z"/>
<path d="M370 1670 c0 -6 32 -10 76 -10 47 0 73 4 69 10 -3 6 -37 10 -76 10
-39 0 -69 -4 -69 -10z"/>
<path d="M540 1670 c0 -5 23 -10 50 -10 28 0 50 5 50 10 0 6 -22 10 -50 10
-27 0 -50 -4 -50 -10z"/>
<path d="M2882 1640 c0 -19 2 -27 5 -17 2 9 2 25 0 35 -3 9 -5 1 -5 -18z"/>
<path d="M367 1634 c-18 -18 15 -24 129 -24 104 0 124 2 124 15 0 13 -20 15
-123 15 -68 0 -127 -3 -130 -6z"/>
<path d="M645 1630 c-3 -5 0 -13 8 -16 23 -8 82 0 82 11 0 14 -82 19 -90 5z"/>
<path d="M320 1580 c0 -5 14 -10 30 -10 17 0 30 5 30 10 0 6 -13 10 -30 10
-16 0 -30 -4 -30 -10z"/>
<path d="M400 1580 c0 -5 25 -10 55 -10 30 0 55 5 55 10 0 6 -25 10 -55 10
-30 0 -55 -4 -55 -10z"/>
<path d="M13 1573 c9 -2 23 -2 30 0 6 3 -1 5 -18 5 -17 0 -22 -2 -12 -5z"/>
<path d="M2848 1565 c-32 -18 -122 -131 -157 -196 l-24 -46 38 -35 38 -35 -18
-46 c-10 -26 -20 -47 -22 -47 -3 0 -13 10 -24 23 -12 14 -18 38 -19 69 0 26
-4 58 -10 72 l-10 26 -228 0 c-164 0 -231 -3 -240 -12 -7 -7 -12 -26 -12 -43
l0 -30 245 3 245 3 -2 -163 -3 -163 -25 3 c-34 4 -69 5 -108 3 -52 -2 -27 -21
28 -21 40 0 50 -3 55 -21 4 -11 5 -22 3 -24 -2 -3 -28 2 -58 10 -30 8 -57 12
-60 8 -3 -3 1 -8 8 -10 6 -3 9 -10 6 -15 -5 -7 -2 -8 7 -2 28 17 97 -1 109
-29 l9 -22 0 23 c1 12 -2 22 -6 22 -5 0 -9 17 -10 38 l-1 37 36 -41 c23 -26
46 -67 60 -110 13 -38 28 -77 33 -86 5 -11 5 -19 -1 -23 -11 -7 -43 -65 -36
-65 2 0 14 15 26 34 20 33 78 76 102 76 6 0 8 -3 5 -6 -16 -16 15 -44 49 -44
46 0 37 -13 -37 -50 -35 -18 -60 -37 -61 -48 0 -9 -2 -22 -2 -28 -2 -20 -29
-45 -42 -40 -7 3 -15 0 -18 -7 -2 -7 -5 -4 -5 6 -1 10 9 37 20 60 15 29 17 38
7 29 -14 -12 -25 -34 -42 -86 -5 -16 -9 -16 -23 -5 -9 8 -14 10 -11 4 4 -6 -8
-10 -27 -10 -37 0 -57 20 -94 93 -31 61 -72 177 -87 247 -17 76 -17 80 0 66
11 -10 14 -7 12 14 0 14 -5 25 -11 26 -5 0 -64 0 -130 -1 -67 0 -129 2 -138 6
-15 5 -17 24 -17 152 0 80 -3 142 -7 138 -11 -11 -3 -279 9 -293 7 -9 46 -13
128 -13 l118 0 15 -60 c17 -67 8 -79 -34 -48 -14 11 -44 22 -65 25 -53 7 -78
-20 -81 -90 -2 -29 -6 -68 -9 -88 -5 -31 -2 -39 21 -58 15 -11 33 -21 41 -21
7 0 14 -3 16 -7 5 -13 88 -52 88 -42 0 5 -16 17 -35 26 -28 13 -32 19 -23 30
9 12 7 13 -13 9 -30 -8 -74 15 -73 37 1 9 -2 14 -7 11 -5 -3 -9 4 -9 15 0 11
5 23 10 26 6 3 10 30 10 60 0 53 0 53 38 64 35 10 35 10 5 8 -18 -2 -29 1 -26
6 11 18 84 -1 113 -28 20 -19 29 -23 33 -13 7 20 11 12 54 -102 22 -58 44
-113 48 -124 7 -16 6 -17 -13 -7 -11 6 -64 45 -117 87 -54 41 -95 71 -94 66 5
-14 99 -88 197 -156 85 -60 99 -77 57 -68 -14 2 -32 -1 -41 -8 -12 -11 -18
-10 -31 3 -12 12 -22 13 -41 6 -14 -5 -27 -7 -30 -4 -10 10 22 33 58 43 30 9
31 10 10 11 -14 1 -35 -6 -46 -14 -12 -8 -24 -11 -28 -8 -3 3 -6 -8 -6 -25 0
-30 1 -30 32 -21 24 6 36 5 48 -6 9 -8 22 -15 29 -15 7 0 10 -4 6 -9 -3 -5 1
-16 9 -24 8 -8 20 -52 26 -98 6 -46 13 -99 17 -116 l5 -33 128 0 128 0 6 73
c12 129 18 167 27 167 12 0 11 57 -1 65 -6 4 -10 -7 -10 -24 l0 -31 -159 0
-159 0 -4 25 -5 25 134 0 c133 0 135 0 179 30 63 44 78 80 33 80 -23 0 -69
-21 -69 -31 0 -4 16 -6 35 -5 29 3 33 1 24 -10 -13 -16 -33 -19 -24 -4 12 19
-10 9 -45 -20 -41 -35 -63 -40 -32 -7 12 13 22 30 22 39 0 19 21 37 84 73 50
29 106 102 106 138 0 18 -5 19 -56 13 l-56 -6 40 46 c47 52 75 125 70 181 -3
37 -4 38 -46 41 -29 2 -42 0 -37 -7 3 -6 -1 -11 -10 -11 -10 0 -15 5 -12 13
41 99 51 117 66 117 38 0 56 55 26 80 -31 26 -74 -15 -61 -58 4 -11 -5 -44
-20 -76 -14 -31 -23 -64 -20 -72 5 -12 1 -14 -17 -10 -12 3 -16 3 -9 0 8 -4
-4 -17 -32 -35 -24 -16 -47 -37 -51 -47 -4 -11 3 -8 22 9 21 20 35 26 58 22
24 -4 36 2 59 26 17 17 35 31 42 31 22 0 36 -28 29 -59 -6 -28 -10 -30 -58
-34 l-52 -3 53 -2 53 -2 -17 -31 c-14 -29 -19 -31 -54 -25 -21 3 -47 9 -57 13
-10 3 -15 3 -11 -2 4 -4 28 -13 53 -19 l45 -12 -30 -36 c-16 -19 -26 -39 -22
-43 4 -5 1 -5 -5 -1 -7 4 -37 -8 -67 -28 l-54 -34 -4 29 c-3 17 0 29 6 29 6 0
5 4 -2 9 -8 4 -14 12 -15 17 -1 5 -6 8 -11 6 -5 -2 -6 4 -3 12 4 9 -1 22 -9
30 -13 14 -12 21 10 65 14 27 42 63 62 80 23 18 45 49 56 78 l18 48 -32 27
c-18 14 -31 28 -28 31 3 2 23 8 45 14 37 8 41 12 53 58 20 74 28 310 12 330
-15 18 -18 18 -52 0z m50 -84 l3 -69 -41 -16 c-22 -9 -42 -16 -44 -16 -2 0 7
34 19 75 13 41 20 75 17 75 -4 0 -18 -36 -31 -80 l-24 -79 -28 20 -29 20 47
60 c49 63 67 78 93 79 13 0 16 -14 18 -69z m-112 -126 c-3 -5 -10 -27 -17 -47
-13 -41 -17 -43 -39 -25 -39 31 -42 43 -20 80 l21 35 29 -16 c17 -9 28 -21 26
-27z m105 0 c-6 -37 -10 -41 -51 -55 -25 -8 -51 -19 -57 -23 -17 -11 -16 -7 7
46 17 38 27 48 63 60 23 8 43 14 43 13 1 0 -1 -19 -5 -41z m-641 -51 c0 -14
-21 -19 -33 -7 -9 9 13 34 24 27 5 -3 9 -12 9 -20z m55 5 c0 -7 -8 -15 -17
-17 -18 -3 -25 18 -11 32 10 10 28 1 28 -15z m55 -5 c0 -8 -7 -14 -15 -14 -15
0 -21 21 -9 33 10 9 24 -2 24 -19z m193 6 c-4 -14 0 -20 12 -20 12 0 16 6 12
20 -3 11 -1 20 4 20 5 0 9 -11 9 -25 0 -23 -4 -25 -44 -25 -98 0 -164 12 -169
31 -4 17 3 18 88 18 87 0 93 -1 88 -19z m72 -10 c-5 -8 -11 -8 -17 -2 -6 6 -7
16 -3 22 5 8 11 8 17 2 6 -6 7 -16 3 -22z m-428 0 c1 -11 -2 -18 -8 -15 -11 7
-12 35 -1 35 4 0 8 -9 9 -20z m678 -60 c-4 -23 -12 -43 -18 -45 -7 -2 -24 -6
-39 -9 -39 -9 -54 -40 -29 -65 10 -10 24 -20 30 -22 19 -7 -22 -91 -57 -116
-16 -12 -41 -44 -54 -71 -22 -45 -26 -48 -36 -31 -14 22 -16 93 -3 85 5 -4 7
3 4 14 -4 13 1 22 13 26 55 20 87 35 82 39 -3 3 -26 -4 -52 -15 l-47 -20 6 23
c4 12 25 68 47 125 35 87 45 103 67 108 14 3 40 9 56 14 17 4 32 6 33 4 2 -1
1 -21 -3 -44z m75 -60 c-21 -14 -30 -12 -30 4 0 18 22 27 35 14 6 -6 5 -12 -5
-18z m-269 -85 l-19 -50 2 67 c1 64 2 67 18 50 17 -17 17 -20 -1 -67z m200
-105 c-24 -21 -51 -26 -51 -11 0 5 12 14 28 19 42 16 49 13 23 -8z m79 -235
c0 -28 -50 -65 -86 -65 -29 0 -34 3 -34 24 0 30 8 36 68 46 26 4 48 8 50 9 1
0 2 -6 2 -14z m-120 -229 c0 -2 -12 -12 -27 -21 l-28 -18 19 21 c17 20 36 29
36 18z m3 -136 c-1 -14 -5 -64 -8 -112 l-7 -88 -119 0 c-65 0 -119 3 -119 8 0
11 -19 142 -25 179 l-6 32 108 3 c188 5 178 6 176 -22z"/>
<path d="M2760 391 c0 -5 5 -13 10 -16 6 -3 10 -2 10 4 0 5 -4 13 -10 16 -5 3
-10 2 -10 -4z"/>
<path d="M2779 322 c5 -34 6 -35 9 -8 2 16 0 32 -5 37 -5 5 -7 -7 -4 -29z"/>
<path d="M2811 254 c0 -11 3 -14 6 -6 3 7 2 16 -1 19 -3 4 -6 -2 -5 -13z"/>
<path d="M73 1535 c-3 -9 -3 -18 -1 -21 3 -3 8 4 11 16 6 23 -1 27 -10 5z"/>
<path d="M37 1473 c-9 -8 -9 -195 -1 -246 6 -34 10 -38 50 -48 24 -6 44 -15
44 -19 0 -5 -12 -17 -27 -28 -26 -19 -26 -21 -15 -61 10 -31 25 -50 65 -80 78
-57 132 -171 82 -171 -8 0 -12 -8 -10 -19 2 -10 -1 -37 -7 -59 l-10 -39 -54
32 c-30 18 -70 50 -89 71 l-35 38 45 12 c25 6 49 15 53 19 4 5 -1 5 -10 2 -44
-15 -89 -19 -103 -7 -11 9 -15 9 -15 1 0 -7 21 -35 48 -63 29 -32 40 -49 27
-44 -37 14 -75 19 -75 9 0 -5 12 -10 26 -11 42 -3 79 -25 79 -47 0 -26 -47
-32 -81 -10 -23 15 -24 14 -24 -4 0 -22 45 -63 101 -92 21 -10 43 -27 48 -38
10 -18 10 -18 -26 0 -42 21 -69 24 -78 8 -14 -22 69 -90 118 -95 34 -4 34 -4
-33 51 -35 30 -40 36 -20 31 14 -4 42 -25 63 -47 37 -38 40 -39 107 -39 50 0
71 4 77 14 5 8 47 39 94 69 l86 54 13 -36 c22 -62 22 -67 3 -43 -16 20 -21 21
-31 9 -10 -11 -5 -29 23 -85 19 -39 35 -77 35 -84 0 -7 -12 12 -26 43 -16 35
-35 61 -50 68 -30 14 -34 14 -34 1 0 -5 8 -10 19 -10 26 0 35 -14 62 -93 l24
-67 47 0 c45 0 47 1 58 37 7 21 26 64 43 96 30 57 31 81 2 57 -9 -7 -13 -15
-11 -18 3 -2 -4 -23 -16 -45 -11 -23 -27 -57 -34 -76 l-14 -36 5 49 c3 27 14
65 25 83 26 44 25 55 -1 23 l-21 -25 14 25 c9 14 19 25 24 25 12 0 103 68 104
78 0 10 -39 9 -53 -2 -74 -58 -88 -77 -92 -121 -8 -85 -35 -166 -35 -104 0 33
-34 147 -41 140 -3 -3 -5 10 -5 30 l0 35 18 -33 c26 -49 22 -26 -8 45 -20 47
-25 73 -22 109 3 26 1 45 -4 42 -4 -3 -8 -14 -8 -24 0 -10 -5 -22 -10 -25 -5
-3 -10 -18 -10 -33 0 -22 -12 -34 -62 -67 -80 -52 -82 -53 -59 -13 24 42 92
223 98 263 3 17 9 50 13 75 12 61 -10 81 -78 73 -54 -6 -60 -9 -45 -24 6 -6
24 -7 51 0 24 5 39 5 36 0 -3 -5 -1 -9 3 -9 5 0 9 -23 10 -50 2 -28 -1 -48 -6
-46 -4 3 -6 -5 -4 -17 5 -23 -50 -186 -85 -253 -12 -21 -32 -52 -46 -69 -22
-27 -27 -29 -46 -17 -16 10 -25 10 -35 2 -11 -9 -16 -3 -26 29 -7 22 -21 49
-33 58 -15 13 -17 13 -9 2 7 -8 19 -33 28 -55 8 -22 10 -31 2 -20 -32 50 -82
96 -125 116 -75 35 -82 44 -36 50 35 4 39 8 39 33 -1 15 2 27 5 27 3 0 26 -13
51 -28 28 -18 52 -45 66 -73 13 -24 23 -38 23 -30 0 7 -10 29 -21 48 -21 34
-21 35 -4 96 30 108 71 173 130 205 19 11 18 11 -7 12 l-28 0 0 170 0 170 245
0 c228 0 245 1 245 18 0 10 -7 28 -16 40 -15 22 -18 22 -269 22 -241 0 -255
-1 -265 -19 -6 -12 -10 -100 -10 -217 0 -189 1 -199 22 -221 22 -24 13 -33
-12 -10 -12 10 -12 9 -1 -5 7 -10 10 -26 6 -35 -5 -15 -10 -12 -25 18 -15 29
-71 86 -127 130 -7 5 -16 21 -19 35 -5 19 0 30 21 50 16 15 25 31 21 40 -3 9
-6 17 -6 19 0 2 -16 7 -35 11 -41 7 -51 18 -58 65 l-5 36 49 -13 c27 -7 53
-15 58 -18 4 -3 28 -51 52 -106 24 -55 45 -96 47 -90 2 6 -3 28 -12 49 -13 34
-13 41 -1 51 8 7 15 18 15 24 0 6 -5 3 -11 -6 -16 -28 -25 -22 -46 30 l-19 47
28 30 c22 23 28 26 28 12 0 -9 5 -17 10 -17 16 0 12 15 -16 56 -45 66 -129
144 -156 144 -14 0 -28 -3 -31 -7z m112 -80 c34 -37 61 -72 61 -77 0 -12 -30
-46 -41 -46 -4 0 -22 35 -39 78 -18 42 -36 82 -42 87 -8 8 14 -56 47 -139 7
-16 5 -17 -16 -11 -79 22 -79 22 -79 95 0 67 5 77 37 79 6 1 39 -29 72 -66z
m563 -38 l-4 -26 -113 2 c-101 2 -114 4 -118 20 -5 17 4 19 117 22 66 1 122 4
122 5 1 1 -1 -9 -4 -23z m-364 -8 c2 -12 -3 -17 -17 -17 -12 0 -21 6 -21 13 0
31 32 34 38 4z m52 -3 c0 -8 -7 -14 -15 -14 -15 0 -21 21 -9 33 10 9 24 -2 24
-19z m53 -5 c-17 -17 -37 -1 -22 17 8 10 15 12 23 4 7 -7 7 -13 -1 -21z m340
10 c4 -16 1 -19 -23 -17 -39 3 -46 32 -9 35 19 1 28 -3 32 -18z m-488 -197 c0
-128 3 -173 14 -185 11 -14 11 -18 -3 -23 -9 -3 -23 -3 -32 0 -13 5 -15 29
-12 181 2 143 6 178 18 185 8 5 15 10 15 10 0 0 0 -76 0 -168z m255 -547 c0
-5 -5 -3 -10 5 -5 8 -10 20 -10 25 0 6 5 3 10 -5 5 -8 10 -19 10 -25z m-364
-55 c27 -41 26 -66 -1 -39 -14 14 -38 79 -29 79 2 0 16 -18 30 -40z m-61 -34
c17 -14 25 -25 19 -26 -6 0 -28 16 -50 35 -43 39 -17 31 31 -9z m440 -38 c13
-29 27 -73 30 -98 l6 -45 -24 61 c-13 34 -33 78 -45 98 -18 30 -19 36 -6 36 9
0 25 -23 39 -52z"/>
<path d="M1424 1366 c25 -20 85 -20 111 0 19 15 18 15 -10 8 -37 -10 -63 -10
-95 0 -24 7 -24 6 -6 -8z"/>
<path d="M812 1139 c-1 -123 -5 -169 -15 -177 -8 -7 -67 -13 -138 -15 l-124
-3 131 -2 c102 -2 134 1 143 12 8 9 11 66 8 182 l-3 169 -2 -166z"/>
<path d="M360 1266 c0 -11 10 -16 31 -16 38 0 35 24 -4 28 -19 2 -27 -1 -27
-12z"/>
<path d="M437 1274 c-15 -15 8 -24 64 -24 46 0 59 3 59 15 0 12 -13 15 -58 15
-32 0 -62 -3 -65 -6z"/>
<path d="M1305 1218 c10 -33 55 -78 92 -94 98 -42 254 19 253 100 0 14 -7 7
-20 -22 -23 -51 -79 -82 -150 -82 -79 0 -160 52 -160 102 0 10 -5 18 -11 18
-6 0 -8 -9 -4 -22z"/>
<path d="M390 1220 c0 -5 20 -10 45 -10 25 0 45 5 45 10 0 6 -20 10 -45 10
-25 0 -45 -4 -45 -10z"/>
<path d="M510 1220 c0 -5 23 -10 50 -10 28 0 50 5 50 10 0 6 -22 10 -50 10
-27 0 -50 -4 -50 -10z"/>
<path d="M1270 1220 c0 -9 12 -33 26 -54 63 -92 228 -115 325 -43 28 20 75 95
65 104 -3 3 -9 -3 -12 -13 -27 -74 -104 -124 -194 -124 -88 0 -153 39 -193
115 -9 17 -16 23 -17 15z"/>
<path d="M2261 1206 c-8 -9 -11 -43 -9 -93 l3 -78 150 0 150 0 3 78 c2 50 -1
84 -9 93 -17 20 -271 20 -288 0z m264 -12 c6 -2 9 -34 9 -72 l-2 -67 -70 -5
c-39 -3 -98 -3 -132 -2 l-61 4 2 66 c1 37 4 71 6 75 5 8 228 8 248 1z"/>
<path d="M1 1171 c-1 -38 1 -42 14 -31 17 14 20 40 6 40 -5 0 -12 8 -14 18 -3
9 -5 -3 -6 -27z"/>
<path d="M1735 1194 c22 -9 54 -23 72 -32 18 -9 35 -13 39 -10 9 10 -67 45
-111 52 l-40 7 40 -17z"/>
<path d="M367 1184 c-16 -17 10 -24 84 -24 64 0 79 3 79 15 0 12 -15 15 -78
15 -43 0 -82 -3 -85 -6z"/>
<path d="M555 1180 c-3 -5 -1 -10 4 -10 6 0 11 5 11 10 0 6 -2 10 -4 10 -3 0
-8 -4 -11 -10z"/>
<path d="M595 1180 c-3 -5 0 -13 8 -16 23 -8 127 0 130 11 3 14 -129 19 -138
5z"/>
<path d="M484 1141 c-2 -2 -4 -8 -4 -13 0 -11 87 -10 94 1 6 9 -81 20 -90 12z"/>
<path d="M2861 1134 c0 -11 3 -14 6 -6 3 7 2 16 -1 19 -3 4 -6 -2 -5 -13z"/>
<path d="M385 1130 c3 -5 22 -10 41 -10 19 0 34 5 34 10 0 6 -18 10 -41 10
-24 0 -38 -4 -34 -10z"/>
<path d="M380 1090 c0 -6 48 -10 125 -10 77 0 125 4 125 10 0 6 -48 10 -125
10 -77 0 -125 -4 -125 -10z"/>
<path d="M160 1046 c15 -16 90 -50 90 -41 0 2 -24 16 -52 31 -31 15 -47 19
-38 10z"/>
<path d="M365 1050 c-10 -16 17 -21 85 -18 40 2 65 8 68 16 5 15 -143 17 -153
2z"/>
<path d="M582 1048 c3 -9 26 -13 71 -13 92 0 91 19 -1 23 -57 2 -73 0 -70 -10z"/>
<path d="M540 1040 c0 -5 5 -10 10 -10 6 0 10 5 10 10 0 6 -4 10 -10 10 -5 0
-10 -4 -10 -10z"/>
<path d="M0 1029 c0 -5 5 -9 11 -9 6 0 24 -14 40 -31 24 -26 35 -30 59 -26 22
5 37 0 62 -20 l33 -27 -28 31 c-16 17 -44 39 -63 49 -19 10 -34 22 -34 26 0 4
-7 4 -17 1 -10 -4 -14 -2 -10 4 4 6 -6 10 -23 11 -17 0 -30 -4 -30 -9z m93
-36 c26 -14 29 -18 13 -21 -10 -2 -28 5 -39 17 -26 25 -17 27 26 4z"/>
<path d="M23 923 c15 -2 37 -2 50 0 12 2 0 4 -28 4 -27 0 -38 -2 -22 -4z"/>
<path d="M340 904 c-6 -14 -10 -35 -9 -47 1 -21 1 -21 7 -2 5 15 18 21 46 23
22 2 49 8 60 13 16 7 11 8 -19 5 -22 -2 -49 -7 -59 -12 -16 -6 -18 -4 -14 19
7 34 0 35 -12 1z"/>
<path d="M879 923 c-4 -31 50 -600 60 -638 l9 -30 1 31 c1 17 -3 53 -8 80 -5
27 -11 85 -12 128 -1 44 -6 98 -10 120 -4 23 -10 77 -13 121 -4 44 -9 104 -12
133 l-6 53 586 -2 c323 -1 589 1 593 5 3 3 -262 6 -590 6 -329 0 -597 -3 -598
-7z"/>
<path d="M398 863 c6 -2 18 -2 25 0 6 3 1 5 -13 5 -14 0 -19 -2 -12 -5z"/>
<path d="M2520 866 c0 -2 13 -6 29 -8 17 -2 28 -1 25 4 -5 8 -54 12 -54 4z"/>
<path d="M558 839 c-21 -11 -38 -26 -38 -34 0 -11 12 -7 42 15 40 29 81 39 92
21 3 -4 -5 -6 -18 -4 -13 3 -26 1 -30 -5 -3 -5 2 -9 12 -9 50 0 52 -2 52 -43
0 -22 4 -40 10 -40 19 0 42 -49 36 -75 -10 -40 -78 -66 -117 -44 l-21 11 20
-29 c11 -15 23 -50 27 -78 4 -36 3 -46 -4 -35 -10 13 -11 13 -10 0 0 -16 17
-58 19 -50 9 27 9 123 0 139 -9 18 -8 21 10 21 76 0 117 82 65 131 -17 17 -25
35 -25 60 0 66 -51 86 -122 48z"/>
<path d="M276 756 c-9 -36 -16 -73 -15 -83 1 -10 10 18 20 61 11 44 18 81 15
83 -2 2 -11 -25 -20 -61z"/>
<path d="M2656 805 c3 -11 12 -54 20 -95 l14 -75 -5 62 c-3 34 -12 77 -20 95
-8 18 -13 24 -9 13z"/>
<path d="M196 764 c-4 -9 -4 -19 -1 -22 2 -3 7 3 11 12 4 9 4 19 1 22 -2 3 -7
-3 -11 -12z"/>
<path d="M349 712 c-29 -15 -55 -34 -57 -42 -3 -10 4 -7 19 7 13 12 44 31 69
42 25 11 40 20 34 20 -7 1 -35 -11 -65 -27z"/>
<path d="M2570 719 c25 -11 56 -30 70 -42 l25 -22 -20 24 c-22 25 -56 45 -95
55 -14 3 -5 -3 20 -15z"/>
<path d="M589 703 l-24 -28 28 24 c25 23 32 31 24 31 -2 0 -14 -12 -28 -27z"/>
<path d="M370 700 c-13 -8 -12 -10 3 -10 9 0 17 5 17 10 0 12 -1 12 -20 0z"/>
<path d="M2569 695 c18 -8 36 -15 40 -15 13 1 -45 29 -59 29 -8 0 0 -6 19 -14z"/>
<path d="M176 655 c9 -14 19 -24 21 -21 7 7 -16 46 -28 46 -5 0 -2 -11 7 -25z"/>
<path d="M2762 668 c-7 -7 -12 -19 -12 -27 0 -11 5 -8 16 7 18 25 15 39 -4 20z"/>
<path d="M1415 625 c-14 -13 -25 -33 -25 -44 0 -29 48 -81 75 -81 38 0 78 41
78 80 0 65 -80 94 -128 45z m97 -2 c32 -29 15 -100 -25 -104 -49 -5 -77 17
-77 60 0 53 62 80 102 44z"/>
<path d="M2676 574 c-4 -20 -5 -38 -3 -40 3 -3 8 11 11 32 4 20 5 38 3 40 -3
3 -8 -11 -11 -32z"/>
<path d="M261 575 c0 -11 4 -29 9 -40 9 -20 9 -20 9 0 0 11 -4 29 -9 40 -9 20
-9 20 -9 0z"/>
<path d="M2243 555 c-44 -31 -25 -70 37 -78 19 -2 1 -5 -41 -5 -95 -2 -109
-14 -109 -95 0 -46 4 -58 22 -71 40 -28 58 -21 58 22 0 54 13 62 97 62 84 0
93 8 93 88 0 36 -5 54 -20 67 -28 25 -109 31 -137 10z m133 -26 c19 -15 18
-93 -1 -112 -11 -11 -29 -14 -70 -10 -75 7 -105 -12 -105 -67 0 -33 -3 -38
-17 -33 -26 10 -33 23 -33 70 0 69 4 73 79 73 78 0 102 10 82 34 -8 9 -24 16
-36 16 -24 0 -49 22 -38 33 13 13 33 7 34 -10 0 -13 3 -12 10 6 8 20 14 23 45
18 20 -3 42 -11 50 -18z"/>
<path d="M468 533 c7 -3 16 -2 19 1 4 3 -2 6 -13 5 -11 0 -14 -3 -6 -6z"/>
<path d="M379 489 c-10 -6 -7 -9 13 -9 20 0 26 -4 22 -15 -5 -12 -2 -13 17 -7
13 5 25 15 27 22 3 9 -1 11 -12 7 -10 -4 -25 -3 -35 2 -10 6 -23 6 -32 0z"/>
<path d="M2077 454 c2 -26 -2 -53 -8 -60 -7 -8 -10 -17 -7 -20 7 -6 36 38 43
68 4 16 0 29 -13 41 -19 17 -19 17 -15 -29z m21 -9 c-3 -3 -9 2 -12 12 -6 14
-5 15 5 6 7 -7 10 -15 7 -18z"/>
<path d="M70 462 c0 -20 22 -72 30 -72 3 0 4 -17 2 -37 -1 -21 2 -65 7 -98 9
-58 10 -57 6 30 -4 97 0 91 13 -21 7 -60 6 -70 -8 -71 -64 -5 -96 -52 -66 -98
l16 -25 1398 0 c1249 0 1400 2 1420 16 24 17 29 52 9 76 -15 19 -47 31 -47 18
0 -6 -162 -11 -432 -12 -268 -1 -374 -4 -278 -8 85 -3 286 -3 447 0 160 3 289
2 287 -2 -2 -4 0 -9 6 -13 17 -11 12 -45 -7 -45 -19 -1 -2751 -1 -2789 0 -27
0 -41 30 -19 42 8 5 13 13 11 17 -3 4 9 6 27 3 25 -3 29 -1 17 7 -11 8 20 11
111 11 101 0 128 3 132 14 3 8 12 60 19 116 7 64 17 104 25 107 36 14 1 18
-119 13 -73 -3 -149 -3 -168 0 -35 5 -35 5 -13 21 26 18 21 29 -14 29 -15 0
-23 -6 -23 -18z m306 -77 c0 -14 -5 -25 -9 -25 -5 0 -7 -8 -6 -17 2 -10 -1
-45 -6 -78 -5 -33 -8 -63 -7 -67 1 -5 -43 -8 -98 -8 l-99 0 -5 33 c-3 17 -8
55 -11 82 -3 28 -8 62 -11 78 l-6 27 130 0 130 0 -2 -25z"/>
<path d="M2420 437 c0 -39 -24 -60 -76 -68 l-49 -6 49 -2 c41 -1 53 3 73 25
13 15 22 33 19 40 -3 8 1 14 8 14 8 0 17 -6 19 -12 4 -8 6 -7 6 3 1 16 -18 29
-40 29 -5 0 -9 -10 -9 -23z"/>
<path d="M2482 393 c-3 -71 -17 -83 -103 -83 -38 0 -69 -3 -69 -7 0 -5 31 -8
70 -8 93 0 113 18 107 96 l-3 54 -2 -52z"/>
<path d="M1894 366 c-10 -8 -17 -16 -14 -19 3 -2 14 4 24 14 23 22 18 25 -10
5z"/>
<path d="M2235 358 c-2 -7 -5 -37 -8 -66 -3 -39 0 -59 12 -73 21 -26 90 -36
130 -19 29 12 50 45 37 57 -3 4 -6 -1 -6 -10 0 -24 -32 -37 -90 -37 -57 0 -65
10 -69 86 -2 42 18 72 39 59 5 -3 10 -1 10 4 0 15 -50 14 -55 -1z"/>
<path d="M490 285 c0 -25 4 -45 9 -45 5 0 11 -11 13 -25 5 -25 4 -25 -63 -25
-38 0 -69 -4 -69 -9 0 -5 -10 -12 -22 -14 -13 -2 31 -4 97 -4 l120 1 -90 6
c-76 5 -64 7 83 8 l172 2 0 30 c0 17 5 30 10 30 6 0 10 21 10 46 l0 45 -37 -3
c-21 -2 -36 -7 -33 -13 3 -5 12 -9 22 -8 26 4 41 -22 28 -46 -10 -19 -20 -21
-110 -21 -124 0 -130 2 -128 49 l1 36 5 -35 c4 -32 5 -33 11 -10 5 19 13 24
29 22 16 -2 20 1 16 12 -4 10 -19 16 -40 16 -34 0 -34 -1 -34 -45z m231 -68
c-6 -8 -8 -17 -4 -20 3 -4 -38 -7 -92 -7 -54 0 -95 3 -92 7 4 3 2 12 -4 20
-10 11 7 13 96 13 89 0 106 -2 96 -13z"/>
<path d="M2338 270 c12 -5 22 -15 22 -22 0 -9 3 -9 10 2 15 23 13 25 -23 27
-28 1 -29 0 -9 -7z"/>
<path d="M798 183 c29 -2 74 -2 100 0 26 2 2 3 -53 3 -55 0 -76 -1 -47 -3z"/>
<path d="M2073 183 c37 -2 96 -2 130 0 34 2 4 3 -68 3 -71 0 -99 -1 -62 -3z"/>
<path d="M2428 183 c29 -2 74 -2 100 0 26 2 2 3 -53 3 -55 0 -76 -1 -47 -3z"/>
<path d="M603 163 c15 -2 39 -2 55 0 15 2 2 4 -28 4 -30 0 -43 -2 -27 -4z"/>
<path d="M741 165 c8 -7 199 -8 206 -1 4 3 -42 6 -102 6 -60 0 -106 -2 -104
-5z"/>
</g>
</svg>
